%TF.GenerationSoftware,KiCad,Pcbnew,(5.0.0)*%
%TF.CreationDate,2020-05-10T15:15:54+01:00*%
%TF.ProjectId,anneau_led,616E6E6561755F6C65642E6B69636164,rev?*%
%TF.SameCoordinates,Original*%
%TF.FileFunction,Soldermask,Top*%
%TF.FilePolarity,Negative*%
%FSLAX46Y46*%
G04 Gerber Fmt 4.6, Leading zero omitted, Abs format (unit mm)*
G04 Created by KiCad (PCBNEW (5.0.0)) date 05/10/20 15:15:54*
%MOMM*%
%LPD*%
G01*
G04 APERTURE LIST*
%ADD10C,0.200000*%
%ADD11C,0.100000*%
%ADD12C,1.825000*%
%ADD13O,2.400000X2.100000*%
%ADD14R,2.400000X2.100000*%
%ADD15R,2.200000X2.200000*%
%ADD16C,2.200000*%
G04 APERTURE END LIST*
D10*
X115000000Y-114000000D02*
G75*
G03X115000000Y-114000000I-1000000J0D01*
G01*
X87000000Y-114000000D02*
G75*
G03X87000000Y-114000000I-1000000J0D01*
G01*
X87000000Y-86000000D02*
G75*
G03X87000000Y-86000000I-1000000J0D01*
G01*
X115000000Y-86000000D02*
G75*
G03X115000000Y-86000000I-1000000J0D01*
G01*
X81000000Y-81000000D02*
X119000000Y-81000000D01*
X81000000Y-81000000D02*
X81000000Y-119000000D01*
X81000000Y-119000000D02*
X119000000Y-119000000D01*
X119000000Y-81000000D02*
X119000000Y-119000000D01*
X107500000Y-100000000D02*
G75*
G03X107500000Y-100000000I-7500000J0D01*
G01*
D11*
G36*
X99915207Y-81984542D02*
X99946287Y-81989152D01*
X99976766Y-81996787D01*
X100006350Y-82007372D01*
X100034754Y-82020806D01*
X100061704Y-82036959D01*
X100086942Y-82055677D01*
X100110223Y-82076777D01*
X100131323Y-82100058D01*
X100150041Y-82125296D01*
X100166194Y-82152246D01*
X100179628Y-82180650D01*
X100190213Y-82210234D01*
X100197848Y-82240713D01*
X100202458Y-82271793D01*
X100204000Y-82303176D01*
X100204000Y-83812824D01*
X100202458Y-83844207D01*
X100197848Y-83875287D01*
X100190213Y-83905766D01*
X100179628Y-83935350D01*
X100166194Y-83963754D01*
X100150041Y-83990704D01*
X100131323Y-84015942D01*
X100110223Y-84039223D01*
X100086942Y-84060323D01*
X100061704Y-84079041D01*
X100034754Y-84095194D01*
X100006350Y-84108628D01*
X99976766Y-84119213D01*
X99946287Y-84126848D01*
X99915207Y-84131458D01*
X99883824Y-84133000D01*
X98699176Y-84133000D01*
X98667793Y-84131458D01*
X98636713Y-84126848D01*
X98606234Y-84119213D01*
X98576650Y-84108628D01*
X98548246Y-84095194D01*
X98521296Y-84079041D01*
X98496058Y-84060323D01*
X98472777Y-84039223D01*
X98451677Y-84015942D01*
X98432959Y-83990704D01*
X98416806Y-83963754D01*
X98403372Y-83935350D01*
X98392787Y-83905766D01*
X98385152Y-83875287D01*
X98380542Y-83844207D01*
X98379000Y-83812824D01*
X98379000Y-82303176D01*
X98380542Y-82271793D01*
X98385152Y-82240713D01*
X98392787Y-82210234D01*
X98403372Y-82180650D01*
X98416806Y-82152246D01*
X98432959Y-82125296D01*
X98451677Y-82100058D01*
X98472777Y-82076777D01*
X98496058Y-82055677D01*
X98521296Y-82036959D01*
X98548246Y-82020806D01*
X98576650Y-82007372D01*
X98606234Y-81996787D01*
X98636713Y-81989152D01*
X98667793Y-81984542D01*
X98699176Y-81983000D01*
X99883824Y-81983000D01*
X99915207Y-81984542D01*
X99915207Y-81984542D01*
G37*
D12*
X99291500Y-83058000D03*
D11*
G36*
X96940207Y-81984542D02*
X96971287Y-81989152D01*
X97001766Y-81996787D01*
X97031350Y-82007372D01*
X97059754Y-82020806D01*
X97086704Y-82036959D01*
X97111942Y-82055677D01*
X97135223Y-82076777D01*
X97156323Y-82100058D01*
X97175041Y-82125296D01*
X97191194Y-82152246D01*
X97204628Y-82180650D01*
X97215213Y-82210234D01*
X97222848Y-82240713D01*
X97227458Y-82271793D01*
X97229000Y-82303176D01*
X97229000Y-83812824D01*
X97227458Y-83844207D01*
X97222848Y-83875287D01*
X97215213Y-83905766D01*
X97204628Y-83935350D01*
X97191194Y-83963754D01*
X97175041Y-83990704D01*
X97156323Y-84015942D01*
X97135223Y-84039223D01*
X97111942Y-84060323D01*
X97086704Y-84079041D01*
X97059754Y-84095194D01*
X97031350Y-84108628D01*
X97001766Y-84119213D01*
X96971287Y-84126848D01*
X96940207Y-84131458D01*
X96908824Y-84133000D01*
X95724176Y-84133000D01*
X95692793Y-84131458D01*
X95661713Y-84126848D01*
X95631234Y-84119213D01*
X95601650Y-84108628D01*
X95573246Y-84095194D01*
X95546296Y-84079041D01*
X95521058Y-84060323D01*
X95497777Y-84039223D01*
X95476677Y-84015942D01*
X95457959Y-83990704D01*
X95441806Y-83963754D01*
X95428372Y-83935350D01*
X95417787Y-83905766D01*
X95410152Y-83875287D01*
X95405542Y-83844207D01*
X95404000Y-83812824D01*
X95404000Y-82303176D01*
X95405542Y-82271793D01*
X95410152Y-82240713D01*
X95417787Y-82210234D01*
X95428372Y-82180650D01*
X95441806Y-82152246D01*
X95457959Y-82125296D01*
X95476677Y-82100058D01*
X95497777Y-82076777D01*
X95521058Y-82055677D01*
X95546296Y-82036959D01*
X95573246Y-82020806D01*
X95601650Y-82007372D01*
X95631234Y-81996787D01*
X95661713Y-81989152D01*
X95692793Y-81984542D01*
X95724176Y-81983000D01*
X96908824Y-81983000D01*
X96940207Y-81984542D01*
X96940207Y-81984542D01*
G37*
D12*
X96316500Y-83058000D03*
D11*
G36*
X98182207Y-115766542D02*
X98213287Y-115771152D01*
X98243766Y-115778787D01*
X98273350Y-115789372D01*
X98301754Y-115802806D01*
X98328704Y-115818959D01*
X98353942Y-115837677D01*
X98377223Y-115858777D01*
X98398323Y-115882058D01*
X98417041Y-115907296D01*
X98433194Y-115934246D01*
X98446628Y-115962650D01*
X98457213Y-115992234D01*
X98464848Y-116022713D01*
X98469458Y-116053793D01*
X98471000Y-116085176D01*
X98471000Y-117594824D01*
X98469458Y-117626207D01*
X98464848Y-117657287D01*
X98457213Y-117687766D01*
X98446628Y-117717350D01*
X98433194Y-117745754D01*
X98417041Y-117772704D01*
X98398323Y-117797942D01*
X98377223Y-117821223D01*
X98353942Y-117842323D01*
X98328704Y-117861041D01*
X98301754Y-117877194D01*
X98273350Y-117890628D01*
X98243766Y-117901213D01*
X98213287Y-117908848D01*
X98182207Y-117913458D01*
X98150824Y-117915000D01*
X96966176Y-117915000D01*
X96934793Y-117913458D01*
X96903713Y-117908848D01*
X96873234Y-117901213D01*
X96843650Y-117890628D01*
X96815246Y-117877194D01*
X96788296Y-117861041D01*
X96763058Y-117842323D01*
X96739777Y-117821223D01*
X96718677Y-117797942D01*
X96699959Y-117772704D01*
X96683806Y-117745754D01*
X96670372Y-117717350D01*
X96659787Y-117687766D01*
X96652152Y-117657287D01*
X96647542Y-117626207D01*
X96646000Y-117594824D01*
X96646000Y-116085176D01*
X96647542Y-116053793D01*
X96652152Y-116022713D01*
X96659787Y-115992234D01*
X96670372Y-115962650D01*
X96683806Y-115934246D01*
X96699959Y-115907296D01*
X96718677Y-115882058D01*
X96739777Y-115858777D01*
X96763058Y-115837677D01*
X96788296Y-115818959D01*
X96815246Y-115802806D01*
X96843650Y-115789372D01*
X96873234Y-115778787D01*
X96903713Y-115771152D01*
X96934793Y-115766542D01*
X96966176Y-115765000D01*
X98150824Y-115765000D01*
X98182207Y-115766542D01*
X98182207Y-115766542D01*
G37*
D12*
X97558500Y-116840000D03*
D11*
G36*
X101157207Y-115766542D02*
X101188287Y-115771152D01*
X101218766Y-115778787D01*
X101248350Y-115789372D01*
X101276754Y-115802806D01*
X101303704Y-115818959D01*
X101328942Y-115837677D01*
X101352223Y-115858777D01*
X101373323Y-115882058D01*
X101392041Y-115907296D01*
X101408194Y-115934246D01*
X101421628Y-115962650D01*
X101432213Y-115992234D01*
X101439848Y-116022713D01*
X101444458Y-116053793D01*
X101446000Y-116085176D01*
X101446000Y-117594824D01*
X101444458Y-117626207D01*
X101439848Y-117657287D01*
X101432213Y-117687766D01*
X101421628Y-117717350D01*
X101408194Y-117745754D01*
X101392041Y-117772704D01*
X101373323Y-117797942D01*
X101352223Y-117821223D01*
X101328942Y-117842323D01*
X101303704Y-117861041D01*
X101276754Y-117877194D01*
X101248350Y-117890628D01*
X101218766Y-117901213D01*
X101188287Y-117908848D01*
X101157207Y-117913458D01*
X101125824Y-117915000D01*
X99941176Y-117915000D01*
X99909793Y-117913458D01*
X99878713Y-117908848D01*
X99848234Y-117901213D01*
X99818650Y-117890628D01*
X99790246Y-117877194D01*
X99763296Y-117861041D01*
X99738058Y-117842323D01*
X99714777Y-117821223D01*
X99693677Y-117797942D01*
X99674959Y-117772704D01*
X99658806Y-117745754D01*
X99645372Y-117717350D01*
X99634787Y-117687766D01*
X99627152Y-117657287D01*
X99622542Y-117626207D01*
X99621000Y-117594824D01*
X99621000Y-116085176D01*
X99622542Y-116053793D01*
X99627152Y-116022713D01*
X99634787Y-115992234D01*
X99645372Y-115962650D01*
X99658806Y-115934246D01*
X99674959Y-115907296D01*
X99693677Y-115882058D01*
X99714777Y-115858777D01*
X99738058Y-115837677D01*
X99763296Y-115818959D01*
X99790246Y-115802806D01*
X99818650Y-115789372D01*
X99848234Y-115778787D01*
X99878713Y-115771152D01*
X99909793Y-115766542D01*
X99941176Y-115765000D01*
X101125824Y-115765000D01*
X101157207Y-115766542D01*
X101157207Y-115766542D01*
G37*
D12*
X100533500Y-116840000D03*
D11*
G36*
X84606207Y-90833542D02*
X84637287Y-90838152D01*
X84667766Y-90845787D01*
X84697350Y-90856372D01*
X84725754Y-90869806D01*
X84752704Y-90885959D01*
X84777942Y-90904677D01*
X84801223Y-90925777D01*
X84822323Y-90949058D01*
X84841041Y-90974296D01*
X84857194Y-91001246D01*
X84870628Y-91029650D01*
X84881213Y-91059234D01*
X84888848Y-91089713D01*
X84893458Y-91120793D01*
X84895000Y-91152176D01*
X84895000Y-92336824D01*
X84893458Y-92368207D01*
X84888848Y-92399287D01*
X84881213Y-92429766D01*
X84870628Y-92459350D01*
X84857194Y-92487754D01*
X84841041Y-92514704D01*
X84822323Y-92539942D01*
X84801223Y-92563223D01*
X84777942Y-92584323D01*
X84752704Y-92603041D01*
X84725754Y-92619194D01*
X84697350Y-92632628D01*
X84667766Y-92643213D01*
X84637287Y-92650848D01*
X84606207Y-92655458D01*
X84574824Y-92657000D01*
X83065176Y-92657000D01*
X83033793Y-92655458D01*
X83002713Y-92650848D01*
X82972234Y-92643213D01*
X82942650Y-92632628D01*
X82914246Y-92619194D01*
X82887296Y-92603041D01*
X82862058Y-92584323D01*
X82838777Y-92563223D01*
X82817677Y-92539942D01*
X82798959Y-92514704D01*
X82782806Y-92487754D01*
X82769372Y-92459350D01*
X82758787Y-92429766D01*
X82751152Y-92399287D01*
X82746542Y-92368207D01*
X82745000Y-92336824D01*
X82745000Y-91152176D01*
X82746542Y-91120793D01*
X82751152Y-91089713D01*
X82758787Y-91059234D01*
X82769372Y-91029650D01*
X82782806Y-91001246D01*
X82798959Y-90974296D01*
X82817677Y-90949058D01*
X82838777Y-90925777D01*
X82862058Y-90904677D01*
X82887296Y-90885959D01*
X82914246Y-90869806D01*
X82942650Y-90856372D01*
X82972234Y-90845787D01*
X83002713Y-90838152D01*
X83033793Y-90833542D01*
X83065176Y-90832000D01*
X84574824Y-90832000D01*
X84606207Y-90833542D01*
X84606207Y-90833542D01*
G37*
D12*
X83820000Y-91744500D03*
D11*
G36*
X84606207Y-93808542D02*
X84637287Y-93813152D01*
X84667766Y-93820787D01*
X84697350Y-93831372D01*
X84725754Y-93844806D01*
X84752704Y-93860959D01*
X84777942Y-93879677D01*
X84801223Y-93900777D01*
X84822323Y-93924058D01*
X84841041Y-93949296D01*
X84857194Y-93976246D01*
X84870628Y-94004650D01*
X84881213Y-94034234D01*
X84888848Y-94064713D01*
X84893458Y-94095793D01*
X84895000Y-94127176D01*
X84895000Y-95311824D01*
X84893458Y-95343207D01*
X84888848Y-95374287D01*
X84881213Y-95404766D01*
X84870628Y-95434350D01*
X84857194Y-95462754D01*
X84841041Y-95489704D01*
X84822323Y-95514942D01*
X84801223Y-95538223D01*
X84777942Y-95559323D01*
X84752704Y-95578041D01*
X84725754Y-95594194D01*
X84697350Y-95607628D01*
X84667766Y-95618213D01*
X84637287Y-95625848D01*
X84606207Y-95630458D01*
X84574824Y-95632000D01*
X83065176Y-95632000D01*
X83033793Y-95630458D01*
X83002713Y-95625848D01*
X82972234Y-95618213D01*
X82942650Y-95607628D01*
X82914246Y-95594194D01*
X82887296Y-95578041D01*
X82862058Y-95559323D01*
X82838777Y-95538223D01*
X82817677Y-95514942D01*
X82798959Y-95489704D01*
X82782806Y-95462754D01*
X82769372Y-95434350D01*
X82758787Y-95404766D01*
X82751152Y-95374287D01*
X82746542Y-95343207D01*
X82745000Y-95311824D01*
X82745000Y-94127176D01*
X82746542Y-94095793D01*
X82751152Y-94064713D01*
X82758787Y-94034234D01*
X82769372Y-94004650D01*
X82782806Y-93976246D01*
X82798959Y-93949296D01*
X82817677Y-93924058D01*
X82838777Y-93900777D01*
X82862058Y-93879677D01*
X82887296Y-93860959D01*
X82914246Y-93844806D01*
X82942650Y-93831372D01*
X82972234Y-93820787D01*
X83002713Y-93813152D01*
X83033793Y-93808542D01*
X83065176Y-93807000D01*
X84574824Y-93807000D01*
X84606207Y-93808542D01*
X84606207Y-93808542D01*
G37*
D12*
X83820000Y-94719500D03*
D11*
G36*
X116737207Y-94062542D02*
X116768287Y-94067152D01*
X116798766Y-94074787D01*
X116828350Y-94085372D01*
X116856754Y-94098806D01*
X116883704Y-94114959D01*
X116908942Y-94133677D01*
X116932223Y-94154777D01*
X116953323Y-94178058D01*
X116972041Y-94203296D01*
X116988194Y-94230246D01*
X117001628Y-94258650D01*
X117012213Y-94288234D01*
X117019848Y-94318713D01*
X117024458Y-94349793D01*
X117026000Y-94381176D01*
X117026000Y-95565824D01*
X117024458Y-95597207D01*
X117019848Y-95628287D01*
X117012213Y-95658766D01*
X117001628Y-95688350D01*
X116988194Y-95716754D01*
X116972041Y-95743704D01*
X116953323Y-95768942D01*
X116932223Y-95792223D01*
X116908942Y-95813323D01*
X116883704Y-95832041D01*
X116856754Y-95848194D01*
X116828350Y-95861628D01*
X116798766Y-95872213D01*
X116768287Y-95879848D01*
X116737207Y-95884458D01*
X116705824Y-95886000D01*
X115196176Y-95886000D01*
X115164793Y-95884458D01*
X115133713Y-95879848D01*
X115103234Y-95872213D01*
X115073650Y-95861628D01*
X115045246Y-95848194D01*
X115018296Y-95832041D01*
X114993058Y-95813323D01*
X114969777Y-95792223D01*
X114948677Y-95768942D01*
X114929959Y-95743704D01*
X114913806Y-95716754D01*
X114900372Y-95688350D01*
X114889787Y-95658766D01*
X114882152Y-95628287D01*
X114877542Y-95597207D01*
X114876000Y-95565824D01*
X114876000Y-94381176D01*
X114877542Y-94349793D01*
X114882152Y-94318713D01*
X114889787Y-94288234D01*
X114900372Y-94258650D01*
X114913806Y-94230246D01*
X114929959Y-94203296D01*
X114948677Y-94178058D01*
X114969777Y-94154777D01*
X114993058Y-94133677D01*
X115018296Y-94114959D01*
X115045246Y-94098806D01*
X115073650Y-94085372D01*
X115103234Y-94074787D01*
X115133713Y-94067152D01*
X115164793Y-94062542D01*
X115196176Y-94061000D01*
X116705824Y-94061000D01*
X116737207Y-94062542D01*
X116737207Y-94062542D01*
G37*
D12*
X115951000Y-94973500D03*
D11*
G36*
X116737207Y-91087542D02*
X116768287Y-91092152D01*
X116798766Y-91099787D01*
X116828350Y-91110372D01*
X116856754Y-91123806D01*
X116883704Y-91139959D01*
X116908942Y-91158677D01*
X116932223Y-91179777D01*
X116953323Y-91203058D01*
X116972041Y-91228296D01*
X116988194Y-91255246D01*
X117001628Y-91283650D01*
X117012213Y-91313234D01*
X117019848Y-91343713D01*
X117024458Y-91374793D01*
X117026000Y-91406176D01*
X117026000Y-92590824D01*
X117024458Y-92622207D01*
X117019848Y-92653287D01*
X117012213Y-92683766D01*
X117001628Y-92713350D01*
X116988194Y-92741754D01*
X116972041Y-92768704D01*
X116953323Y-92793942D01*
X116932223Y-92817223D01*
X116908942Y-92838323D01*
X116883704Y-92857041D01*
X116856754Y-92873194D01*
X116828350Y-92886628D01*
X116798766Y-92897213D01*
X116768287Y-92904848D01*
X116737207Y-92909458D01*
X116705824Y-92911000D01*
X115196176Y-92911000D01*
X115164793Y-92909458D01*
X115133713Y-92904848D01*
X115103234Y-92897213D01*
X115073650Y-92886628D01*
X115045246Y-92873194D01*
X115018296Y-92857041D01*
X114993058Y-92838323D01*
X114969777Y-92817223D01*
X114948677Y-92793942D01*
X114929959Y-92768704D01*
X114913806Y-92741754D01*
X114900372Y-92713350D01*
X114889787Y-92683766D01*
X114882152Y-92653287D01*
X114877542Y-92622207D01*
X114876000Y-92590824D01*
X114876000Y-91406176D01*
X114877542Y-91374793D01*
X114882152Y-91343713D01*
X114889787Y-91313234D01*
X114900372Y-91283650D01*
X114913806Y-91255246D01*
X114929959Y-91228296D01*
X114948677Y-91203058D01*
X114969777Y-91179777D01*
X114993058Y-91158677D01*
X115018296Y-91139959D01*
X115045246Y-91123806D01*
X115073650Y-91110372D01*
X115103234Y-91099787D01*
X115133713Y-91092152D01*
X115164793Y-91087542D01*
X115196176Y-91086000D01*
X116705824Y-91086000D01*
X116737207Y-91087542D01*
X116737207Y-91087542D01*
G37*
D12*
X115951000Y-91998500D03*
D13*
X84836000Y-98719000D03*
D14*
X84836000Y-101219000D03*
D15*
X110500000Y-92450000D03*
D16*
X113040000Y-92450000D03*
X106170000Y-87120000D03*
D15*
X106170000Y-89660000D03*
X93830000Y-89660000D03*
D16*
X93830000Y-87120000D03*
X86960000Y-92450000D03*
D15*
X89500000Y-92450000D03*
X89500000Y-107550000D03*
D16*
X86960000Y-107550000D03*
X93830000Y-112880000D03*
D15*
X93830000Y-110340000D03*
X100000000Y-111730000D03*
D16*
X100000000Y-114270000D03*
X106170000Y-112880000D03*
D15*
X106170000Y-110340000D03*
X110500000Y-107550000D03*
D16*
X113040000Y-107550000D03*
D15*
X100000000Y-88270000D03*
D16*
X100000000Y-85730000D03*
M02*
