%TF.GenerationSoftware,KiCad,Pcbnew,(5.0.0)*%
%TF.CreationDate,2020-05-10T15:15:54+01:00*%
%TF.ProjectId,anneau_led,616E6E6561755F6C65642E6B69636164,rev?*%
%TF.SameCoordinates,Original*%
%TF.FileFunction,Copper,L1,Top,Signal*%
%TF.FilePolarity,Positive*%
%FSLAX46Y46*%
G04 Gerber Fmt 4.6, Leading zero omitted, Abs format (unit mm)*
G04 Created by KiCad (PCBNEW (5.0.0)) date 05/10/20 15:15:54*
%MOMM*%
%LPD*%
G01*
G04 APERTURE LIST*
%ADD10C,0.200000*%
%ADD11C,0.100000*%
%ADD12C,1.425000*%
%ADD13O,2.000000X1.700000*%
%ADD14R,2.000000X1.700000*%
%ADD15R,1.800000X1.800000*%
%ADD16C,1.800000*%
G04 APERTURE END LIST*
D10*
X115000000Y-114000000D02*
G75*
G03X115000000Y-114000000I-1000000J0D01*
G01*
X87000000Y-114000000D02*
G75*
G03X87000000Y-114000000I-1000000J0D01*
G01*
X87000000Y-86000000D02*
G75*
G03X87000000Y-86000000I-1000000J0D01*
G01*
X115000000Y-86000000D02*
G75*
G03X115000000Y-86000000I-1000000J0D01*
G01*
X81000000Y-81000000D02*
X119000000Y-81000000D01*
X81000000Y-81000000D02*
X81000000Y-119000000D01*
X81000000Y-119000000D02*
X119000000Y-119000000D01*
X119000000Y-81000000D02*
X119000000Y-119000000D01*
X107500000Y-100000000D02*
G75*
G03X107500000Y-100000000I-7500000J0D01*
G01*
D11*
G36*
X99778504Y-82184204D02*
X99802773Y-82187804D01*
X99826571Y-82193765D01*
X99849671Y-82202030D01*
X99871849Y-82212520D01*
X99892893Y-82225133D01*
X99912598Y-82239747D01*
X99930777Y-82256223D01*
X99947253Y-82274402D01*
X99961867Y-82294107D01*
X99974480Y-82315151D01*
X99984970Y-82337329D01*
X99993235Y-82360429D01*
X99999196Y-82384227D01*
X100002796Y-82408496D01*
X100004000Y-82433000D01*
X100004000Y-83683000D01*
X100002796Y-83707504D01*
X99999196Y-83731773D01*
X99993235Y-83755571D01*
X99984970Y-83778671D01*
X99974480Y-83800849D01*
X99961867Y-83821893D01*
X99947253Y-83841598D01*
X99930777Y-83859777D01*
X99912598Y-83876253D01*
X99892893Y-83890867D01*
X99871849Y-83903480D01*
X99849671Y-83913970D01*
X99826571Y-83922235D01*
X99802773Y-83928196D01*
X99778504Y-83931796D01*
X99754000Y-83933000D01*
X98829000Y-83933000D01*
X98804496Y-83931796D01*
X98780227Y-83928196D01*
X98756429Y-83922235D01*
X98733329Y-83913970D01*
X98711151Y-83903480D01*
X98690107Y-83890867D01*
X98670402Y-83876253D01*
X98652223Y-83859777D01*
X98635747Y-83841598D01*
X98621133Y-83821893D01*
X98608520Y-83800849D01*
X98598030Y-83778671D01*
X98589765Y-83755571D01*
X98583804Y-83731773D01*
X98580204Y-83707504D01*
X98579000Y-83683000D01*
X98579000Y-82433000D01*
X98580204Y-82408496D01*
X98583804Y-82384227D01*
X98589765Y-82360429D01*
X98598030Y-82337329D01*
X98608520Y-82315151D01*
X98621133Y-82294107D01*
X98635747Y-82274402D01*
X98652223Y-82256223D01*
X98670402Y-82239747D01*
X98690107Y-82225133D01*
X98711151Y-82212520D01*
X98733329Y-82202030D01*
X98756429Y-82193765D01*
X98780227Y-82187804D01*
X98804496Y-82184204D01*
X98829000Y-82183000D01*
X99754000Y-82183000D01*
X99778504Y-82184204D01*
X99778504Y-82184204D01*
G37*
D12*
X99291500Y-83058000D03*
D11*
G36*
X96803504Y-82184204D02*
X96827773Y-82187804D01*
X96851571Y-82193765D01*
X96874671Y-82202030D01*
X96896849Y-82212520D01*
X96917893Y-82225133D01*
X96937598Y-82239747D01*
X96955777Y-82256223D01*
X96972253Y-82274402D01*
X96986867Y-82294107D01*
X96999480Y-82315151D01*
X97009970Y-82337329D01*
X97018235Y-82360429D01*
X97024196Y-82384227D01*
X97027796Y-82408496D01*
X97029000Y-82433000D01*
X97029000Y-83683000D01*
X97027796Y-83707504D01*
X97024196Y-83731773D01*
X97018235Y-83755571D01*
X97009970Y-83778671D01*
X96999480Y-83800849D01*
X96986867Y-83821893D01*
X96972253Y-83841598D01*
X96955777Y-83859777D01*
X96937598Y-83876253D01*
X96917893Y-83890867D01*
X96896849Y-83903480D01*
X96874671Y-83913970D01*
X96851571Y-83922235D01*
X96827773Y-83928196D01*
X96803504Y-83931796D01*
X96779000Y-83933000D01*
X95854000Y-83933000D01*
X95829496Y-83931796D01*
X95805227Y-83928196D01*
X95781429Y-83922235D01*
X95758329Y-83913970D01*
X95736151Y-83903480D01*
X95715107Y-83890867D01*
X95695402Y-83876253D01*
X95677223Y-83859777D01*
X95660747Y-83841598D01*
X95646133Y-83821893D01*
X95633520Y-83800849D01*
X95623030Y-83778671D01*
X95614765Y-83755571D01*
X95608804Y-83731773D01*
X95605204Y-83707504D01*
X95604000Y-83683000D01*
X95604000Y-82433000D01*
X95605204Y-82408496D01*
X95608804Y-82384227D01*
X95614765Y-82360429D01*
X95623030Y-82337329D01*
X95633520Y-82315151D01*
X95646133Y-82294107D01*
X95660747Y-82274402D01*
X95677223Y-82256223D01*
X95695402Y-82239747D01*
X95715107Y-82225133D01*
X95736151Y-82212520D01*
X95758329Y-82202030D01*
X95781429Y-82193765D01*
X95805227Y-82187804D01*
X95829496Y-82184204D01*
X95854000Y-82183000D01*
X96779000Y-82183000D01*
X96803504Y-82184204D01*
X96803504Y-82184204D01*
G37*
D12*
X96316500Y-83058000D03*
D11*
G36*
X98045504Y-115966204D02*
X98069773Y-115969804D01*
X98093571Y-115975765D01*
X98116671Y-115984030D01*
X98138849Y-115994520D01*
X98159893Y-116007133D01*
X98179598Y-116021747D01*
X98197777Y-116038223D01*
X98214253Y-116056402D01*
X98228867Y-116076107D01*
X98241480Y-116097151D01*
X98251970Y-116119329D01*
X98260235Y-116142429D01*
X98266196Y-116166227D01*
X98269796Y-116190496D01*
X98271000Y-116215000D01*
X98271000Y-117465000D01*
X98269796Y-117489504D01*
X98266196Y-117513773D01*
X98260235Y-117537571D01*
X98251970Y-117560671D01*
X98241480Y-117582849D01*
X98228867Y-117603893D01*
X98214253Y-117623598D01*
X98197777Y-117641777D01*
X98179598Y-117658253D01*
X98159893Y-117672867D01*
X98138849Y-117685480D01*
X98116671Y-117695970D01*
X98093571Y-117704235D01*
X98069773Y-117710196D01*
X98045504Y-117713796D01*
X98021000Y-117715000D01*
X97096000Y-117715000D01*
X97071496Y-117713796D01*
X97047227Y-117710196D01*
X97023429Y-117704235D01*
X97000329Y-117695970D01*
X96978151Y-117685480D01*
X96957107Y-117672867D01*
X96937402Y-117658253D01*
X96919223Y-117641777D01*
X96902747Y-117623598D01*
X96888133Y-117603893D01*
X96875520Y-117582849D01*
X96865030Y-117560671D01*
X96856765Y-117537571D01*
X96850804Y-117513773D01*
X96847204Y-117489504D01*
X96846000Y-117465000D01*
X96846000Y-116215000D01*
X96847204Y-116190496D01*
X96850804Y-116166227D01*
X96856765Y-116142429D01*
X96865030Y-116119329D01*
X96875520Y-116097151D01*
X96888133Y-116076107D01*
X96902747Y-116056402D01*
X96919223Y-116038223D01*
X96937402Y-116021747D01*
X96957107Y-116007133D01*
X96978151Y-115994520D01*
X97000329Y-115984030D01*
X97023429Y-115975765D01*
X97047227Y-115969804D01*
X97071496Y-115966204D01*
X97096000Y-115965000D01*
X98021000Y-115965000D01*
X98045504Y-115966204D01*
X98045504Y-115966204D01*
G37*
D12*
X97558500Y-116840000D03*
D11*
G36*
X101020504Y-115966204D02*
X101044773Y-115969804D01*
X101068571Y-115975765D01*
X101091671Y-115984030D01*
X101113849Y-115994520D01*
X101134893Y-116007133D01*
X101154598Y-116021747D01*
X101172777Y-116038223D01*
X101189253Y-116056402D01*
X101203867Y-116076107D01*
X101216480Y-116097151D01*
X101226970Y-116119329D01*
X101235235Y-116142429D01*
X101241196Y-116166227D01*
X101244796Y-116190496D01*
X101246000Y-116215000D01*
X101246000Y-117465000D01*
X101244796Y-117489504D01*
X101241196Y-117513773D01*
X101235235Y-117537571D01*
X101226970Y-117560671D01*
X101216480Y-117582849D01*
X101203867Y-117603893D01*
X101189253Y-117623598D01*
X101172777Y-117641777D01*
X101154598Y-117658253D01*
X101134893Y-117672867D01*
X101113849Y-117685480D01*
X101091671Y-117695970D01*
X101068571Y-117704235D01*
X101044773Y-117710196D01*
X101020504Y-117713796D01*
X100996000Y-117715000D01*
X100071000Y-117715000D01*
X100046496Y-117713796D01*
X100022227Y-117710196D01*
X99998429Y-117704235D01*
X99975329Y-117695970D01*
X99953151Y-117685480D01*
X99932107Y-117672867D01*
X99912402Y-117658253D01*
X99894223Y-117641777D01*
X99877747Y-117623598D01*
X99863133Y-117603893D01*
X99850520Y-117582849D01*
X99840030Y-117560671D01*
X99831765Y-117537571D01*
X99825804Y-117513773D01*
X99822204Y-117489504D01*
X99821000Y-117465000D01*
X99821000Y-116215000D01*
X99822204Y-116190496D01*
X99825804Y-116166227D01*
X99831765Y-116142429D01*
X99840030Y-116119329D01*
X99850520Y-116097151D01*
X99863133Y-116076107D01*
X99877747Y-116056402D01*
X99894223Y-116038223D01*
X99912402Y-116021747D01*
X99932107Y-116007133D01*
X99953151Y-115994520D01*
X99975329Y-115984030D01*
X99998429Y-115975765D01*
X100022227Y-115969804D01*
X100046496Y-115966204D01*
X100071000Y-115965000D01*
X100996000Y-115965000D01*
X101020504Y-115966204D01*
X101020504Y-115966204D01*
G37*
D12*
X100533500Y-116840000D03*
D11*
G36*
X84469504Y-91033204D02*
X84493773Y-91036804D01*
X84517571Y-91042765D01*
X84540671Y-91051030D01*
X84562849Y-91061520D01*
X84583893Y-91074133D01*
X84603598Y-91088747D01*
X84621777Y-91105223D01*
X84638253Y-91123402D01*
X84652867Y-91143107D01*
X84665480Y-91164151D01*
X84675970Y-91186329D01*
X84684235Y-91209429D01*
X84690196Y-91233227D01*
X84693796Y-91257496D01*
X84695000Y-91282000D01*
X84695000Y-92207000D01*
X84693796Y-92231504D01*
X84690196Y-92255773D01*
X84684235Y-92279571D01*
X84675970Y-92302671D01*
X84665480Y-92324849D01*
X84652867Y-92345893D01*
X84638253Y-92365598D01*
X84621777Y-92383777D01*
X84603598Y-92400253D01*
X84583893Y-92414867D01*
X84562849Y-92427480D01*
X84540671Y-92437970D01*
X84517571Y-92446235D01*
X84493773Y-92452196D01*
X84469504Y-92455796D01*
X84445000Y-92457000D01*
X83195000Y-92457000D01*
X83170496Y-92455796D01*
X83146227Y-92452196D01*
X83122429Y-92446235D01*
X83099329Y-92437970D01*
X83077151Y-92427480D01*
X83056107Y-92414867D01*
X83036402Y-92400253D01*
X83018223Y-92383777D01*
X83001747Y-92365598D01*
X82987133Y-92345893D01*
X82974520Y-92324849D01*
X82964030Y-92302671D01*
X82955765Y-92279571D01*
X82949804Y-92255773D01*
X82946204Y-92231504D01*
X82945000Y-92207000D01*
X82945000Y-91282000D01*
X82946204Y-91257496D01*
X82949804Y-91233227D01*
X82955765Y-91209429D01*
X82964030Y-91186329D01*
X82974520Y-91164151D01*
X82987133Y-91143107D01*
X83001747Y-91123402D01*
X83018223Y-91105223D01*
X83036402Y-91088747D01*
X83056107Y-91074133D01*
X83077151Y-91061520D01*
X83099329Y-91051030D01*
X83122429Y-91042765D01*
X83146227Y-91036804D01*
X83170496Y-91033204D01*
X83195000Y-91032000D01*
X84445000Y-91032000D01*
X84469504Y-91033204D01*
X84469504Y-91033204D01*
G37*
D12*
X83820000Y-91744500D03*
D11*
G36*
X84469504Y-94008204D02*
X84493773Y-94011804D01*
X84517571Y-94017765D01*
X84540671Y-94026030D01*
X84562849Y-94036520D01*
X84583893Y-94049133D01*
X84603598Y-94063747D01*
X84621777Y-94080223D01*
X84638253Y-94098402D01*
X84652867Y-94118107D01*
X84665480Y-94139151D01*
X84675970Y-94161329D01*
X84684235Y-94184429D01*
X84690196Y-94208227D01*
X84693796Y-94232496D01*
X84695000Y-94257000D01*
X84695000Y-95182000D01*
X84693796Y-95206504D01*
X84690196Y-95230773D01*
X84684235Y-95254571D01*
X84675970Y-95277671D01*
X84665480Y-95299849D01*
X84652867Y-95320893D01*
X84638253Y-95340598D01*
X84621777Y-95358777D01*
X84603598Y-95375253D01*
X84583893Y-95389867D01*
X84562849Y-95402480D01*
X84540671Y-95412970D01*
X84517571Y-95421235D01*
X84493773Y-95427196D01*
X84469504Y-95430796D01*
X84445000Y-95432000D01*
X83195000Y-95432000D01*
X83170496Y-95430796D01*
X83146227Y-95427196D01*
X83122429Y-95421235D01*
X83099329Y-95412970D01*
X83077151Y-95402480D01*
X83056107Y-95389867D01*
X83036402Y-95375253D01*
X83018223Y-95358777D01*
X83001747Y-95340598D01*
X82987133Y-95320893D01*
X82974520Y-95299849D01*
X82964030Y-95277671D01*
X82955765Y-95254571D01*
X82949804Y-95230773D01*
X82946204Y-95206504D01*
X82945000Y-95182000D01*
X82945000Y-94257000D01*
X82946204Y-94232496D01*
X82949804Y-94208227D01*
X82955765Y-94184429D01*
X82964030Y-94161329D01*
X82974520Y-94139151D01*
X82987133Y-94118107D01*
X83001747Y-94098402D01*
X83018223Y-94080223D01*
X83036402Y-94063747D01*
X83056107Y-94049133D01*
X83077151Y-94036520D01*
X83099329Y-94026030D01*
X83122429Y-94017765D01*
X83146227Y-94011804D01*
X83170496Y-94008204D01*
X83195000Y-94007000D01*
X84445000Y-94007000D01*
X84469504Y-94008204D01*
X84469504Y-94008204D01*
G37*
D12*
X83820000Y-94719500D03*
D11*
G36*
X116600504Y-94262204D02*
X116624773Y-94265804D01*
X116648571Y-94271765D01*
X116671671Y-94280030D01*
X116693849Y-94290520D01*
X116714893Y-94303133D01*
X116734598Y-94317747D01*
X116752777Y-94334223D01*
X116769253Y-94352402D01*
X116783867Y-94372107D01*
X116796480Y-94393151D01*
X116806970Y-94415329D01*
X116815235Y-94438429D01*
X116821196Y-94462227D01*
X116824796Y-94486496D01*
X116826000Y-94511000D01*
X116826000Y-95436000D01*
X116824796Y-95460504D01*
X116821196Y-95484773D01*
X116815235Y-95508571D01*
X116806970Y-95531671D01*
X116796480Y-95553849D01*
X116783867Y-95574893D01*
X116769253Y-95594598D01*
X116752777Y-95612777D01*
X116734598Y-95629253D01*
X116714893Y-95643867D01*
X116693849Y-95656480D01*
X116671671Y-95666970D01*
X116648571Y-95675235D01*
X116624773Y-95681196D01*
X116600504Y-95684796D01*
X116576000Y-95686000D01*
X115326000Y-95686000D01*
X115301496Y-95684796D01*
X115277227Y-95681196D01*
X115253429Y-95675235D01*
X115230329Y-95666970D01*
X115208151Y-95656480D01*
X115187107Y-95643867D01*
X115167402Y-95629253D01*
X115149223Y-95612777D01*
X115132747Y-95594598D01*
X115118133Y-95574893D01*
X115105520Y-95553849D01*
X115095030Y-95531671D01*
X115086765Y-95508571D01*
X115080804Y-95484773D01*
X115077204Y-95460504D01*
X115076000Y-95436000D01*
X115076000Y-94511000D01*
X115077204Y-94486496D01*
X115080804Y-94462227D01*
X115086765Y-94438429D01*
X115095030Y-94415329D01*
X115105520Y-94393151D01*
X115118133Y-94372107D01*
X115132747Y-94352402D01*
X115149223Y-94334223D01*
X115167402Y-94317747D01*
X115187107Y-94303133D01*
X115208151Y-94290520D01*
X115230329Y-94280030D01*
X115253429Y-94271765D01*
X115277227Y-94265804D01*
X115301496Y-94262204D01*
X115326000Y-94261000D01*
X116576000Y-94261000D01*
X116600504Y-94262204D01*
X116600504Y-94262204D01*
G37*
D12*
X115951000Y-94973500D03*
D11*
G36*
X116600504Y-91287204D02*
X116624773Y-91290804D01*
X116648571Y-91296765D01*
X116671671Y-91305030D01*
X116693849Y-91315520D01*
X116714893Y-91328133D01*
X116734598Y-91342747D01*
X116752777Y-91359223D01*
X116769253Y-91377402D01*
X116783867Y-91397107D01*
X116796480Y-91418151D01*
X116806970Y-91440329D01*
X116815235Y-91463429D01*
X116821196Y-91487227D01*
X116824796Y-91511496D01*
X116826000Y-91536000D01*
X116826000Y-92461000D01*
X116824796Y-92485504D01*
X116821196Y-92509773D01*
X116815235Y-92533571D01*
X116806970Y-92556671D01*
X116796480Y-92578849D01*
X116783867Y-92599893D01*
X116769253Y-92619598D01*
X116752777Y-92637777D01*
X116734598Y-92654253D01*
X116714893Y-92668867D01*
X116693849Y-92681480D01*
X116671671Y-92691970D01*
X116648571Y-92700235D01*
X116624773Y-92706196D01*
X116600504Y-92709796D01*
X116576000Y-92711000D01*
X115326000Y-92711000D01*
X115301496Y-92709796D01*
X115277227Y-92706196D01*
X115253429Y-92700235D01*
X115230329Y-92691970D01*
X115208151Y-92681480D01*
X115187107Y-92668867D01*
X115167402Y-92654253D01*
X115149223Y-92637777D01*
X115132747Y-92619598D01*
X115118133Y-92599893D01*
X115105520Y-92578849D01*
X115095030Y-92556671D01*
X115086765Y-92533571D01*
X115080804Y-92509773D01*
X115077204Y-92485504D01*
X115076000Y-92461000D01*
X115076000Y-91536000D01*
X115077204Y-91511496D01*
X115080804Y-91487227D01*
X115086765Y-91463429D01*
X115095030Y-91440329D01*
X115105520Y-91418151D01*
X115118133Y-91397107D01*
X115132747Y-91377402D01*
X115149223Y-91359223D01*
X115167402Y-91342747D01*
X115187107Y-91328133D01*
X115208151Y-91315520D01*
X115230329Y-91305030D01*
X115253429Y-91296765D01*
X115277227Y-91290804D01*
X115301496Y-91287204D01*
X115326000Y-91286000D01*
X116576000Y-91286000D01*
X116600504Y-91287204D01*
X116600504Y-91287204D01*
G37*
D12*
X115951000Y-91998500D03*
D13*
X84836000Y-98719000D03*
D14*
X84836000Y-101219000D03*
D15*
X110500000Y-92450000D03*
D16*
X113040000Y-92450000D03*
X106170000Y-87120000D03*
D15*
X106170000Y-89660000D03*
X93830000Y-89660000D03*
D16*
X93830000Y-87120000D03*
X86960000Y-92450000D03*
D15*
X89500000Y-92450000D03*
X89500000Y-107550000D03*
D16*
X86960000Y-107550000D03*
X93830000Y-112880000D03*
D15*
X93830000Y-110340000D03*
X100000000Y-111730000D03*
D16*
X100000000Y-114270000D03*
X106170000Y-112880000D03*
D15*
X106170000Y-110340000D03*
X110500000Y-107550000D03*
D16*
X113040000Y-107550000D03*
D15*
X100000000Y-88270000D03*
D16*
X100000000Y-85730000D03*
M02*
