M48
;DRILL file {KiCad (5.0.0)} date 05/10/20 15:03:39
;FORMAT={3:3/ absolute / metric / keep zeros}
FMAT,2
METRIC,TZ
T1C0.900
T2C1.000
%
G90
G05
M71
T1
X093830Y-110340
X100000Y-085730
X100000Y-088270
X110500Y-092450
X113040Y-092450
X106170Y-110340
X106170Y-112880
X110500Y-107550
X113040Y-107550
X106170Y-087120
X106170Y-089660
X100000Y-111730
X100000Y-114270
X086960Y-107550
X089500Y-107550
X093830Y-112880
X086960Y-092450
X089500Y-092450
X093830Y-087120
X093830Y-089660
T2
X084836Y-098719
X084836Y-101219
T0
M30
