%TF.GenerationSoftware,KiCad,Pcbnew,(5.0.0)*%
%TF.CreationDate,2020-05-10T15:03:53+01:00*%
%TF.ProjectId,anneau_led,616E6E6561755F6C65642E6B69636164,rev?*%
%TF.SameCoordinates,Original*%
%TF.FileFunction,Legend,Top*%
%TF.FilePolarity,Positive*%
%FSLAX46Y46*%
G04 Gerber Fmt 4.6, Leading zero omitted, Abs format (unit mm)*
G04 Created by KiCad (PCBNEW (5.0.0)) date 05/10/20 15:03:53*
%MOMM*%
%LPD*%
G01*
G04 APERTURE LIST*
%ADD10C,0.200000*%
%ADD11C,0.120000*%
%ADD12C,0.150000*%
G04 APERTURE END LIST*
D10*
X115000000Y-114000000D02*
G75*
G03X115000000Y-114000000I-1000000J0D01*
G01*
X87000000Y-114000000D02*
G75*
G03X87000000Y-114000000I-1000000J0D01*
G01*
X87000000Y-86000000D02*
G75*
G03X87000000Y-86000000I-1000000J0D01*
G01*
X115000000Y-86000000D02*
G75*
G03X115000000Y-86000000I-1000000J0D01*
G01*
X81000000Y-81000000D02*
X119000000Y-81000000D01*
X81000000Y-81000000D02*
X81000000Y-119000000D01*
X81000000Y-119000000D02*
X119000000Y-119000000D01*
X119000000Y-81000000D02*
X119000000Y-119000000D01*
X107500000Y-100000000D02*
G75*
G03X107500000Y-100000000I-7500000J0D01*
G01*
D11*
X97201936Y-83968000D02*
X98406064Y-83968000D01*
X97201936Y-82148000D02*
X98406064Y-82148000D01*
X98443936Y-115930000D02*
X99648064Y-115930000D01*
X98443936Y-117750000D02*
X99648064Y-117750000D01*
X84730000Y-93834064D02*
X84730000Y-92629936D01*
X82910000Y-93834064D02*
X82910000Y-92629936D01*
X115041000Y-94088064D02*
X115041000Y-92883936D01*
X116861000Y-94088064D02*
X116861000Y-92883936D01*
X109210000Y-90905000D02*
X109210000Y-93995000D01*
X114270000Y-92450000D02*
G75*
G03X114270000Y-92450000I-2500000J0D01*
G01*
X114760000Y-92450462D02*
G75*
G03X109210000Y-90905170I-2990000J462D01*
G01*
X114760000Y-92449538D02*
G75*
G02X109210000Y-93994830I-2990000J-462D01*
G01*
X106169538Y-85400000D02*
G75*
G02X107714830Y-90950000I462J-2990000D01*
G01*
X106170462Y-85400000D02*
G75*
G03X104625170Y-90950000I-462J-2990000D01*
G01*
X108670000Y-88390000D02*
G75*
G03X108670000Y-88390000I-2500000J0D01*
G01*
X104625000Y-90950000D02*
X107715000Y-90950000D01*
X92285000Y-90950000D02*
X95375000Y-90950000D01*
X96330000Y-88390000D02*
G75*
G03X96330000Y-88390000I-2500000J0D01*
G01*
X93830462Y-85400000D02*
G75*
G03X92285170Y-90950000I-462J-2990000D01*
G01*
X93829538Y-85400000D02*
G75*
G02X95374830Y-90950000I462J-2990000D01*
G01*
X85240000Y-92450462D02*
G75*
G02X90790000Y-90905170I2990000J462D01*
G01*
X85240000Y-92449538D02*
G75*
G03X90790000Y-93994830I2990000J-462D01*
G01*
X90730000Y-92450000D02*
G75*
G03X90730000Y-92450000I-2500000J0D01*
G01*
X90790000Y-93995000D02*
X90790000Y-90905000D01*
X90790000Y-109095000D02*
X90790000Y-106005000D01*
X90730000Y-107550000D02*
G75*
G03X90730000Y-107550000I-2500000J0D01*
G01*
X85240000Y-107549538D02*
G75*
G03X90790000Y-109094830I2990000J-462D01*
G01*
X85240000Y-107550462D02*
G75*
G02X90790000Y-106005170I2990000J462D01*
G01*
X93830462Y-114600000D02*
G75*
G02X92285170Y-109050000I-462J2990000D01*
G01*
X93829538Y-114600000D02*
G75*
G03X95374830Y-109050000I462J2990000D01*
G01*
X96330000Y-111610000D02*
G75*
G03X96330000Y-111610000I-2500000J0D01*
G01*
X95375000Y-109050000D02*
X92285000Y-109050000D01*
X101545000Y-110440000D02*
X98455000Y-110440000D01*
X102500000Y-113000000D02*
G75*
G03X102500000Y-113000000I-2500000J0D01*
G01*
X99999538Y-115990000D02*
G75*
G03X101544830Y-110440000I462J2990000D01*
G01*
X100000462Y-115990000D02*
G75*
G02X98455170Y-110440000I-462J2990000D01*
G01*
X106170462Y-114600000D02*
G75*
G02X104625170Y-109050000I-462J2990000D01*
G01*
X106169538Y-114600000D02*
G75*
G03X107714830Y-109050000I462J2990000D01*
G01*
X108670000Y-111610000D02*
G75*
G03X108670000Y-111610000I-2500000J0D01*
G01*
X107715000Y-109050000D02*
X104625000Y-109050000D01*
X109210000Y-106005000D02*
X109210000Y-109095000D01*
X114270000Y-107550000D02*
G75*
G03X114270000Y-107550000I-2500000J0D01*
G01*
X114760000Y-107550462D02*
G75*
G03X109210000Y-106005170I-2990000J462D01*
G01*
X114760000Y-107549538D02*
G75*
G02X109210000Y-109094830I-2990000J-462D01*
G01*
X100000462Y-84010000D02*
G75*
G03X98455170Y-89560000I-462J-2990000D01*
G01*
X99999538Y-84010000D02*
G75*
G02X101544830Y-89560000I462J-2990000D01*
G01*
X102500000Y-87000000D02*
G75*
G03X102500000Y-87000000I-2500000J0D01*
G01*
X98455000Y-89560000D02*
X101545000Y-89560000D01*
D12*
X97637333Y-81690380D02*
X97304000Y-81214190D01*
X97065904Y-81690380D02*
X97065904Y-80690380D01*
X97446857Y-80690380D01*
X97542095Y-80738000D01*
X97589714Y-80785619D01*
X97637333Y-80880857D01*
X97637333Y-81023714D01*
X97589714Y-81118952D01*
X97542095Y-81166571D01*
X97446857Y-81214190D01*
X97065904Y-81214190D01*
X98494476Y-81023714D02*
X98494476Y-81690380D01*
X98256380Y-80642761D02*
X98018285Y-81357047D01*
X98637333Y-81357047D01*
X98879333Y-115472380D02*
X98546000Y-114996190D01*
X98307904Y-115472380D02*
X98307904Y-114472380D01*
X98688857Y-114472380D01*
X98784095Y-114520000D01*
X98831714Y-114567619D01*
X98879333Y-114662857D01*
X98879333Y-114805714D01*
X98831714Y-114900952D01*
X98784095Y-114948571D01*
X98688857Y-114996190D01*
X98307904Y-114996190D01*
X99212666Y-114472380D02*
X99831714Y-114472380D01*
X99498380Y-114853333D01*
X99641238Y-114853333D01*
X99736476Y-114900952D01*
X99784095Y-114948571D01*
X99831714Y-115043809D01*
X99831714Y-115281904D01*
X99784095Y-115377142D01*
X99736476Y-115424761D01*
X99641238Y-115472380D01*
X99355523Y-115472380D01*
X99260285Y-115424761D01*
X99212666Y-115377142D01*
X82452380Y-93398666D02*
X81976190Y-93732000D01*
X82452380Y-93970095D02*
X81452380Y-93970095D01*
X81452380Y-93589142D01*
X81500000Y-93493904D01*
X81547619Y-93446285D01*
X81642857Y-93398666D01*
X81785714Y-93398666D01*
X81880952Y-93446285D01*
X81928571Y-93493904D01*
X81976190Y-93589142D01*
X81976190Y-93970095D01*
X81547619Y-93017714D02*
X81500000Y-92970095D01*
X81452380Y-92874857D01*
X81452380Y-92636761D01*
X81500000Y-92541523D01*
X81547619Y-92493904D01*
X81642857Y-92446285D01*
X81738095Y-92446285D01*
X81880952Y-92493904D01*
X82452380Y-93065333D01*
X82452380Y-92446285D01*
X114583380Y-93652666D02*
X114107190Y-93986000D01*
X114583380Y-94224095D02*
X113583380Y-94224095D01*
X113583380Y-93843142D01*
X113631000Y-93747904D01*
X113678619Y-93700285D01*
X113773857Y-93652666D01*
X113916714Y-93652666D01*
X114011952Y-93700285D01*
X114059571Y-93747904D01*
X114107190Y-93843142D01*
X114107190Y-94224095D01*
X114583380Y-92700285D02*
X114583380Y-93271714D01*
X114583380Y-92986000D02*
X113583380Y-92986000D01*
X113726238Y-93081238D01*
X113821476Y-93176476D01*
X113869095Y-93271714D01*
X111031904Y-88942380D02*
X111031904Y-87942380D01*
X111270000Y-87942380D01*
X111412857Y-87990000D01*
X111508095Y-88085238D01*
X111555714Y-88180476D01*
X111603333Y-88370952D01*
X111603333Y-88513809D01*
X111555714Y-88704285D01*
X111508095Y-88799523D01*
X111412857Y-88894761D01*
X111270000Y-88942380D01*
X111031904Y-88942380D01*
X112555714Y-88942380D02*
X111984285Y-88942380D01*
X112270000Y-88942380D02*
X112270000Y-87942380D01*
X112174761Y-88085238D01*
X112079523Y-88180476D01*
X111984285Y-88228095D01*
X102662380Y-89128095D02*
X101662380Y-89128095D01*
X101662380Y-88890000D01*
X101710000Y-88747142D01*
X101805238Y-88651904D01*
X101900476Y-88604285D01*
X102090952Y-88556666D01*
X102233809Y-88556666D01*
X102424285Y-88604285D01*
X102519523Y-88651904D01*
X102614761Y-88747142D01*
X102662380Y-88890000D01*
X102662380Y-89128095D01*
X101757619Y-88175714D02*
X101710000Y-88128095D01*
X101662380Y-88032857D01*
X101662380Y-87794761D01*
X101710000Y-87699523D01*
X101757619Y-87651904D01*
X101852857Y-87604285D01*
X101948095Y-87604285D01*
X102090952Y-87651904D01*
X102662380Y-88223333D01*
X102662380Y-87604285D01*
X90322380Y-89128095D02*
X89322380Y-89128095D01*
X89322380Y-88890000D01*
X89370000Y-88747142D01*
X89465238Y-88651904D01*
X89560476Y-88604285D01*
X89750952Y-88556666D01*
X89893809Y-88556666D01*
X90084285Y-88604285D01*
X90179523Y-88651904D01*
X90274761Y-88747142D01*
X90322380Y-88890000D01*
X90322380Y-89128095D01*
X89322380Y-88223333D02*
X89322380Y-87604285D01*
X89703333Y-87937619D01*
X89703333Y-87794761D01*
X89750952Y-87699523D01*
X89798571Y-87651904D01*
X89893809Y-87604285D01*
X90131904Y-87604285D01*
X90227142Y-87651904D01*
X90274761Y-87699523D01*
X90322380Y-87794761D01*
X90322380Y-88080476D01*
X90274761Y-88175714D01*
X90227142Y-88223333D01*
X87491904Y-96862380D02*
X87491904Y-95862380D01*
X87730000Y-95862380D01*
X87872857Y-95910000D01*
X87968095Y-96005238D01*
X88015714Y-96100476D01*
X88063333Y-96290952D01*
X88063333Y-96433809D01*
X88015714Y-96624285D01*
X87968095Y-96719523D01*
X87872857Y-96814761D01*
X87730000Y-96862380D01*
X87491904Y-96862380D01*
X88920476Y-96195714D02*
X88920476Y-96862380D01*
X88682380Y-95814761D02*
X88444285Y-96529047D01*
X89063333Y-96529047D01*
X87491904Y-111962380D02*
X87491904Y-110962380D01*
X87730000Y-110962380D01*
X87872857Y-111010000D01*
X87968095Y-111105238D01*
X88015714Y-111200476D01*
X88063333Y-111390952D01*
X88063333Y-111533809D01*
X88015714Y-111724285D01*
X87968095Y-111819523D01*
X87872857Y-111914761D01*
X87730000Y-111962380D01*
X87491904Y-111962380D01*
X88968095Y-110962380D02*
X88491904Y-110962380D01*
X88444285Y-111438571D01*
X88491904Y-111390952D01*
X88587142Y-111343333D01*
X88825238Y-111343333D01*
X88920476Y-111390952D01*
X88968095Y-111438571D01*
X89015714Y-111533809D01*
X89015714Y-111771904D01*
X88968095Y-111867142D01*
X88920476Y-111914761D01*
X88825238Y-111962380D01*
X88587142Y-111962380D01*
X88491904Y-111914761D01*
X88444285Y-111867142D01*
X98242380Y-112348095D02*
X97242380Y-112348095D01*
X97242380Y-112110000D01*
X97290000Y-111967142D01*
X97385238Y-111871904D01*
X97480476Y-111824285D01*
X97670952Y-111776666D01*
X97813809Y-111776666D01*
X98004285Y-111824285D01*
X98099523Y-111871904D01*
X98194761Y-111967142D01*
X98242380Y-112110000D01*
X98242380Y-112348095D01*
X97242380Y-110919523D02*
X97242380Y-111110000D01*
X97290000Y-111205238D01*
X97337619Y-111252857D01*
X97480476Y-111348095D01*
X97670952Y-111395714D01*
X98051904Y-111395714D01*
X98147142Y-111348095D01*
X98194761Y-111300476D01*
X98242380Y-111205238D01*
X98242380Y-111014761D01*
X98194761Y-110919523D01*
X98147142Y-110871904D01*
X98051904Y-110824285D01*
X97813809Y-110824285D01*
X97718571Y-110871904D01*
X97670952Y-110919523D01*
X97623333Y-111014761D01*
X97623333Y-111205238D01*
X97670952Y-111300476D01*
X97718571Y-111348095D01*
X97813809Y-111395714D01*
X104412380Y-113738095D02*
X103412380Y-113738095D01*
X103412380Y-113500000D01*
X103460000Y-113357142D01*
X103555238Y-113261904D01*
X103650476Y-113214285D01*
X103840952Y-113166666D01*
X103983809Y-113166666D01*
X104174285Y-113214285D01*
X104269523Y-113261904D01*
X104364761Y-113357142D01*
X104412380Y-113500000D01*
X104412380Y-113738095D01*
X103412380Y-112833333D02*
X103412380Y-112166666D01*
X104412380Y-112595238D01*
X110582380Y-112348095D02*
X109582380Y-112348095D01*
X109582380Y-112110000D01*
X109630000Y-111967142D01*
X109725238Y-111871904D01*
X109820476Y-111824285D01*
X110010952Y-111776666D01*
X110153809Y-111776666D01*
X110344285Y-111824285D01*
X110439523Y-111871904D01*
X110534761Y-111967142D01*
X110582380Y-112110000D01*
X110582380Y-112348095D01*
X110010952Y-111205238D02*
X109963333Y-111300476D01*
X109915714Y-111348095D01*
X109820476Y-111395714D01*
X109772857Y-111395714D01*
X109677619Y-111348095D01*
X109630000Y-111300476D01*
X109582380Y-111205238D01*
X109582380Y-111014761D01*
X109630000Y-110919523D01*
X109677619Y-110871904D01*
X109772857Y-110824285D01*
X109820476Y-110824285D01*
X109915714Y-110871904D01*
X109963333Y-110919523D01*
X110010952Y-111014761D01*
X110010952Y-111205238D01*
X110058571Y-111300476D01*
X110106190Y-111348095D01*
X110201428Y-111395714D01*
X110391904Y-111395714D01*
X110487142Y-111348095D01*
X110534761Y-111300476D01*
X110582380Y-111205238D01*
X110582380Y-111014761D01*
X110534761Y-110919523D01*
X110487142Y-110871904D01*
X110391904Y-110824285D01*
X110201428Y-110824285D01*
X110106190Y-110871904D01*
X110058571Y-110919523D01*
X110010952Y-111014761D01*
X111031904Y-104042380D02*
X111031904Y-103042380D01*
X111270000Y-103042380D01*
X111412857Y-103090000D01*
X111508095Y-103185238D01*
X111555714Y-103280476D01*
X111603333Y-103470952D01*
X111603333Y-103613809D01*
X111555714Y-103804285D01*
X111508095Y-103899523D01*
X111412857Y-103994761D01*
X111270000Y-104042380D01*
X111031904Y-104042380D01*
X112079523Y-104042380D02*
X112270000Y-104042380D01*
X112365238Y-103994761D01*
X112412857Y-103947142D01*
X112508095Y-103804285D01*
X112555714Y-103613809D01*
X112555714Y-103232857D01*
X112508095Y-103137619D01*
X112460476Y-103090000D01*
X112365238Y-103042380D01*
X112174761Y-103042380D01*
X112079523Y-103090000D01*
X112031904Y-103137619D01*
X111984285Y-103232857D01*
X111984285Y-103470952D01*
X112031904Y-103566190D01*
X112079523Y-103613809D01*
X112174761Y-103661428D01*
X112365238Y-103661428D01*
X112460476Y-103613809D01*
X112508095Y-103566190D01*
X112555714Y-103470952D01*
X96492380Y-88214285D02*
X95492380Y-88214285D01*
X95492380Y-87976190D01*
X95540000Y-87833333D01*
X95635238Y-87738095D01*
X95730476Y-87690476D01*
X95920952Y-87642857D01*
X96063809Y-87642857D01*
X96254285Y-87690476D01*
X96349523Y-87738095D01*
X96444761Y-87833333D01*
X96492380Y-87976190D01*
X96492380Y-88214285D01*
X96492380Y-86690476D02*
X96492380Y-87261904D01*
X96492380Y-86976190D02*
X95492380Y-86976190D01*
X95635238Y-87071428D01*
X95730476Y-87166666D01*
X95778095Y-87261904D01*
X95492380Y-86071428D02*
X95492380Y-85976190D01*
X95540000Y-85880952D01*
X95587619Y-85833333D01*
X95682857Y-85785714D01*
X95873333Y-85738095D01*
X96111428Y-85738095D01*
X96301904Y-85785714D01*
X96397142Y-85833333D01*
X96444761Y-85880952D01*
X96492380Y-85976190D01*
X96492380Y-86071428D01*
X96444761Y-86166666D01*
X96397142Y-86214285D01*
X96301904Y-86261904D01*
X96111428Y-86309523D01*
X95873333Y-86309523D01*
X95682857Y-86261904D01*
X95587619Y-86214285D01*
X95540000Y-86166666D01*
X95492380Y-86071428D01*
M02*
