%TF.GenerationSoftware,KiCad,Pcbnew,(5.0.0)*%
%TF.CreationDate,2020-05-10T15:15:54+01:00*%
%TF.ProjectId,anneau_led,616E6E6561755F6C65642E6B69636164,rev?*%
%TF.SameCoordinates,Original*%
%TF.FileFunction,Copper,L2,Bot,Signal*%
%TF.FilePolarity,Positive*%
%FSLAX46Y46*%
G04 Gerber Fmt 4.6, Leading zero omitted, Abs format (unit mm)*
G04 Created by KiCad (PCBNEW (5.0.0)) date 05/10/20 15:15:54*
%MOMM*%
%LPD*%
G01*
G04 APERTURE LIST*
%ADD10C,0.200000*%
%ADD11O,2.000000X1.700000*%
%ADD12R,2.000000X1.700000*%
%ADD13R,1.800000X1.800000*%
%ADD14C,1.800000*%
G04 APERTURE END LIST*
D10*
X115000000Y-114000000D02*
G75*
G03X115000000Y-114000000I-1000000J0D01*
G01*
X87000000Y-114000000D02*
G75*
G03X87000000Y-114000000I-1000000J0D01*
G01*
X87000000Y-86000000D02*
G75*
G03X87000000Y-86000000I-1000000J0D01*
G01*
X115000000Y-86000000D02*
G75*
G03X115000000Y-86000000I-1000000J0D01*
G01*
X81000000Y-81000000D02*
X119000000Y-81000000D01*
X81000000Y-81000000D02*
X81000000Y-119000000D01*
X81000000Y-119000000D02*
X119000000Y-119000000D01*
X119000000Y-81000000D02*
X119000000Y-119000000D01*
X107500000Y-100000000D02*
G75*
G03X107500000Y-100000000I-7500000J0D01*
G01*
D11*
X84836000Y-98719000D03*
D12*
X84836000Y-101219000D03*
D13*
X110500000Y-92450000D03*
D14*
X113040000Y-92450000D03*
X106170000Y-87120000D03*
D13*
X106170000Y-89660000D03*
X93830000Y-89660000D03*
D14*
X93830000Y-87120000D03*
X86960000Y-92450000D03*
D13*
X89500000Y-92450000D03*
X89500000Y-107550000D03*
D14*
X86960000Y-107550000D03*
X93830000Y-112880000D03*
D13*
X93830000Y-110340000D03*
X100000000Y-111730000D03*
D14*
X100000000Y-114270000D03*
X106170000Y-112880000D03*
D13*
X106170000Y-110340000D03*
X110500000Y-107550000D03*
D14*
X113040000Y-107550000D03*
D13*
X100000000Y-88270000D03*
D14*
X100000000Y-85730000D03*
M02*
